<?xml version="1.0" encoding="UTF-8" standalone="no"?>
<svg width="201px" height="234px" viewBox="0 0 201 234" version="1.1" xmlns="http://www.w3.org/2000/svg" xmlns:xlink="http://www.w3.org/1999/xlink">
    <!-- Generator: Sketch 41.2 (35397) - http://www.bohemiancoding.com/sketch -->
    <title>Group 4</title>
    <desc>Created with Sketch.</desc>
    <defs></defs>
    <g id="Desktop" stroke="none" stroke-width="1" fill="none" fill-rule="evenodd">
        <g id="Desktop-HD" transform="translate(-1161.000000, -2191.000000)">
            <g id="Group-4" transform="translate(1163.000000, 2193.000000)">
                <g id="Group-3">
                    <ellipse id="Oval-3" stroke="#979797" stroke-width="3" fill="#F3F3F3" cx="94.3463855" cy="115" rx="94.3463855" ry="115"></ellipse>
                    <ellipse id="Oval-3" stroke="#979797" stroke-width="3" fill="#FFFFFF" cx="102.653614" cy="115" rx="94.3463855" ry="115"></ellipse>
                    <ellipse id="Oval-3" stroke="#979797" stroke-width="2" cx="103.840361" cy="114.404145" rx="86.0391566" ry="104.870466"></ellipse>
                    <g id="Group-2" transform="translate(112.337349, 114.427461) scale(-1, 1) translate(-112.337349, -114.427461) translate(66.837349, 67.927461)">
                        <g id="Group">
                            <polygon id="Rectangle" fill="#E2E1E2" transform="translate(22.566486, 70.483786) rotate(-12.000000) translate(-22.566486, -70.483786) " points="3.77412538 51.6744009 41.3588459 51.6744009 40.8802337 89.2931713 3.77412538 81.3723861"></polygon>
                            <polygon id="Rectangle" fill="#F1F1F0" transform="translate(49.655406, 48.367802) rotate(-12.000000) translate(-49.655406, -48.367802) " points="36.776752 7.9893347 61.7911598 7.9893347 62.7547629 88.7462698 36.5560486 83.1322003"></polygon>
                            <polygon id="Rectangle" fill="#BDBEBE" transform="translate(73.842912, 43.963114) rotate(6.000000) translate(-73.842912, -43.963114) " points="61.4118943 1.2919579 86.4263021 1.2919579 86.3057827 83.9312743 61.259522 86.6342693"></polygon>
                        </g>
                    </g>
                </g>
            </g>
        </g>
    </g>
</svg>